<?xml version="1.0" encoding="UTF-8" standalone="no"?>
<!-- Created with Inkscape (http://www.inkscape.org/) -->

<svg
   xmlns:dc="http://purl.org/dc/elements/1.1/"
   xmlns:cc="http://creativecommons.org/ns#"
   xmlns:rdf="http://www.w3.org/1999/02/22-rdf-syntax-ns#"
   xmlns:svg="http://www.w3.org/2000/svg"
   xmlns="http://www.w3.org/2000/svg"
   xmlns:sodipodi="http://sodipodi.sourceforge.net/DTD/sodipodi-0.dtd"
   xmlns:inkscape="http://www.inkscape.org/namespaces/inkscape"
   width="156.74799"
   height="97.339264"
   id="svg2"
   version="1.1"
   inkscape:version="0.48.3.1 r9886"
   sodipodi:docname="New document 1">
  <defs
     id="defs4" />
  <sodipodi:namedview
     id="base"
     pagecolor="#ffffff"
     bordercolor="#666666"
     borderopacity="1.0"
     inkscape:pageopacity="0.0"
     inkscape:pageshadow="2"
     inkscape:zoom="2.8"
     inkscape:cx="55.730998"
     inkscape:cy="53.611697"
     inkscape:document-units="px"
     inkscape:current-layer="layer1"
     showgrid="false"
     fit-margin-top="0"
     fit-margin-left="0"
     fit-margin-right="0"
     fit-margin-bottom="0"
     inkscape:window-width="1190"
     inkscape:window-height="634"
     inkscape:window-x="76"
     inkscape:window-y="53"
     inkscape:window-maximized="0" />
  <metadata
     id="metadata7">
    <rdf:RDF>
      <cc:Work
         rdf:about="">
        <dc:format>image/svg+xml</dc:format>
        <dc:type
           rdf:resource="http://purl.org/dc/dcmitype/StillImage" />
        <dc:title></dc:title>
      </cc:Work>
    </rdf:RDF>
  </metadata>
  <g
     inkscape:label="Layer 1"
     inkscape:groupmode="layer"
     id="layer1"
     transform="translate(-331.51983,-477.22324)">
    <g
       id="g2996"
       transform="translate(-45.714286,-137.14286)">
      <path
         id="path3792"
         transform="translate(45.714286,137.14286)"
         d="m 371.6875,477.25 c -1.09451,0.14414 -1.86763,0.86913 -2.59375,2.0625 -0.93812,1.54178 -0.27529,2.5421 4.40625,6.71875 l 5.5,4.90625 -16.59375,0.0312 c -15.46044,0.0297 -16.73317,0.17595 -18.46875,2.09375 -1.42494,1.57453 -1.59355,2.45622 -0.78125,3.75 0.81798,1.3028 3.03656,1.80239 9.6875,2.1875 l 8.625,0.5 -11.6875,9 c -6.43748,4.95 -13.19348,10.27428 -15,11.84375 -3.38495,2.94079 -4.22653,6.33597 -2.09375,8.46875 2.38876,2.38876 5.74409,1.07567 13.65625,-5.3125 4.12159,-3.32771 7.60937,-5.97722 8.28125,-6.34375 l -14.96875,57.40625 16.4375,0 5.84375,-42.65625 c 2.79935,3.04767 6.33317,5.60094 10.15625,7.09375 6.05363,2.36378 13.34778,2.52436 20.375,0.4375 7.26146,-2.15643 15.16827,-9.97104 16.84375,-16.625 1.72409,-6.84697 1.46386,-10.69793 -1.15625,-16.3125 -2.68457,-5.75271 -5.70649,-8.62099 -21.8125,-20.8125 -8.28601,-6.27213 -12.24833,-8.75461 -14.65625,-8.4375 z m 11.40625,21.875 c 0.70038,0.0103 1.3897,0.0734 2.125,0.15625 5.10368,0.57526 8.76485,2.91941 12.03125,7.71875 5.08035,7.46459 0.83476,17.69611 -8.65625,20.875 -7.18493,2.40649 -13.78709,0.67706 -18.40625,-4.8125 -5.05311,-6.00528 -4.85595,-13.22504 0.46875,-18.71875 3.47048,-3.58061 7.53483,-5.29093 12.4375,-5.21875 z m -0.40625,4.78125 c -2.48816,0.11504 -5.01296,1.05625 -7.09375,3 -4.70046,4.39089 -3.70085,11.54169 2.03125,14.71875 7.12469,3.94892 16.31849,-0.77002 16.0625,-8.21875 -0.20605,-5.9957 -5.52604,-9.7531 -11,-9.5 z"
         style="fill:#787878;fill-opacity:1"
         inkscape:connector-curvature="0" />
      <path
         style="fill:#ef8d48"
         d="m 379,490.9375 c -2.07265,0.0438 -12.05393,0.56611 -17.53125,8.56245 -1.50422,2.19601 -4.77404,7.77232 -6.84375,17.65625 l -14.96875,57.40625 16.4375,0 5.84375,-42.65625 c 2.79935,3.04767 6.33317,5.60094 10.15625,7.09375 6.05363,2.36378 13.34778,2.52436 20.375,0.4375 7.26146,-2.15643 15.16827,-9.97104 16.84375,-16.625 1.72409,-6.84697 1.46386,-10.69793 -1.15625,-16.3125 -2.68457,-5.75271 -4.27791,-6.75048 -12.34821,-13.40628 C 392.59316,490.87606 381.07265,490.8937 379,490.9375 z m 4.09375,8.1875 c 0.70038,0.0103 1.3897,0.0734 2.125,0.15625 5.10368,0.57526 8.76485,2.91941 12.03125,7.71875 5.08035,7.46459 0.83476,17.69611 -8.65625,20.875 -7.18493,2.40649 -13.78709,0.67706 -18.40625,-4.8125 -5.05311,-6.00528 -4.85595,-13.22504 0.46875,-18.71875 3.47048,-3.58061 7.53483,-5.29093 12.4375,-5.21875 z"
         transform="translate(45.714286,137.14286)"
         id="path3002"
         inkscape:connector-curvature="0"
         sodipodi:nodetypes="zsccccssssczcsssssc" />
    </g>
    <g
       transform="matrix(1.0552705,0,-0.1042682,0.94762432,0,0)"
       style="font-size:49.83588791px;font-style:normal;font-variant:normal;font-weight:bold;font-stretch:normal;text-align:start;line-height:125%;letter-spacing:0px;word-spacing:0px;writing-mode:lr-tb;text-anchor:start;fill:#ef8d48;fill-opacity:1;stroke:none;font-family:Ubuntu;-inkscape-font-specification:Ubuntu Bold"
       id="text3776">
      <path
         d="m 426.90932,604.67296 c -1.26253,0.36547 -2.8905,0.6977 -4.88392,0.99672 -1.99345,0.33224 -4.08656,0.49836 -6.27932,0.49836 -2.22601,0 -4.08655,-0.29902 -5.58162,-0.89705 -1.46186,-0.59803 -2.62469,-1.42863 -3.48851,-2.49179 -0.86383,-1.09639 -1.47847,-2.39212 -1.84393,-3.8872 -0.36546,-1.49507 -0.5482,-3.13965 -0.54819,-4.93375 l 0,-14.60192 7.42554,0 0,13.70487 c -10e-6,2.39213 0.31562,4.11977 0.94689,5.18293 0.63124,1.06317 1.81069,1.59476 3.53834,1.59475 0.53157,10e-6 1.09638,-0.0166 1.69442,-0.0498 0.59802,-0.0664 1.1296,-0.13289 1.59475,-0.19934 l 0,-20.23337 7.42555,0 0,25.31663"
         id="path3781"
         inkscape:connector-curvature="0" />
      <path
         d="m 444.39393,606.06837 c -2.15957,-0.0332 -3.92043,-0.2658 -5.2826,-0.69771 -1.32897,-0.43191 -2.39213,-1.02994 -3.1895,-1.79409 -0.76416,-0.79737 -1.29574,-1.74425 -1.59475,-2.84064 -0.26579,-1.12961 -0.39869,-2.39212 -0.39869,-3.78753 l -0.49068,-26.97057 7.27988,-6.09553 0.63635,31.57102 c -1e-5,0.66449 0.0498,1.26252 0.14951,1.79409 0.0997,0.53159 0.28239,0.98012 0.54819,1.34557 0.29901,0.36547 0.71431,0.66449 1.2459,0.89705 0.53157,0.23257 1.24588,0.38208 2.14294,0.44852 l -1.04655,6.12982"
         id="path3783"
         inkscape:connector-curvature="0"
         sodipodi:nodetypes="ccccscccccccc" />
      <path
         d="m 457.222,600.23757 c 1.36217,0 2.32566,-0.13289 2.89048,-0.39869 0.56479,-0.26579 0.8472,-0.78076 0.84721,-1.54491 -1e-5,-0.59803 -0.36548,-1.113 -1.09639,-1.54491 -0.73094,-0.46513 -1.84394,-0.9801 -3.339,-1.54492 -1.16285,-0.4319 -2.22602,-0.88042 -3.1895,-1.34557 -0.93028,-0.46512 -1.72765,-1.01331 -2.39212,-1.64458 -0.66449,-0.66447 -1.17946,-1.44523 -1.54492,-2.34229 -0.36546,-0.89703 -0.54819,-1.9768 -0.54819,-3.23933 0,-2.45855 0.91365,-4.40215 2.74097,-5.8308 1.82731,-1.4286 4.33572,-2.14292 7.52522,-2.14294 1.59474,2e-5 3.12304,0.14953 4.5849,0.44852 1.46184,0.26582 2.62467,0.56483 3.48852,0.89705 l -1.29574,5.78096 c -0.86384,-0.299 -1.81072,-0.56479 -2.84064,-0.79737 -0.99674,-0.23255 -2.12635,-0.34883 -3.38884,-0.34886 -2.32569,3e-5 -3.48853,0.64789 -3.48852,1.9436 -10e-6,0.29904 0.0498,0.56483 0.14951,0.79738 0.0997,0.23258 0.29901,0.46515 0.59803,0.6977 0.29901,0.19936 0.69769,0.43193 1.19606,0.6977 0.53157,0.23259 1.19605,0.49838 1.99344,0.79738 1.62796,0.59804 2.97352,1.19607 4.03671,1.79409 1.06314,0.56482 1.89374,1.19607 2.49179,1.89376 0.63123,0.66449 1.06315,1.41203 1.29573,2.24262 0.26577,0.83061 0.39867,1.7941 0.39869,2.89048 -2e-5,2.59147 -0.98013,4.55168 -2.94032,5.88063 -1.927,1.32896 -4.66797,1.99344 -8.22292,1.99344 -2.32568,0 -4.26928,-0.19934 -5.8308,-0.59803 -1.5283,-0.39869 -2.59147,-0.73093 -3.18949,-0.99672 l 1.24589,-6.03014 c 1.26251,0.49836 2.55824,0.89705 3.8872,1.19606 1.32895,0.2658 2.6413,0.39869 3.93704,0.39869"
         id="path3785"
         inkscape:connector-curvature="0" />
      <path
         d="m 472.59014,592.66251 c 0,-2.32566 0.34885,-4.35231 1.04656,-6.07998 0.73092,-1.76084 1.6778,-3.22269 2.84064,-4.38555 1.16283,-1.16282 2.49179,-2.04325 3.98687,-2.64131 1.52829,-0.598 3.08981,-0.89702 4.68458,-0.89704 3.72106,2e-5 6.66137,1.14625 8.82095,3.43867 2.15953,2.25925 3.2393,5.59825 3.23933,10.01702 -3e-5,0.43192 -0.0166,0.91367 -0.0498,1.44524 -0.0332,0.49837 -0.0665,0.94689 -0.0997,1.34557 l -16.84453,0 c 0.16611,1.52831 0.88043,2.74098 2.14295,3.63802 1.26249,0.89705 2.95691,1.34557 5.08326,1.34557 1.36216,0 2.69111,-0.11628 3.98687,-0.34886 1.32893,-0.26578 2.40871,-0.58141 3.23933,-0.94688 l 0.99672,6.03015 c -0.39871,0.19934 -0.9303,0.39868 -1.59475,0.59803 -0.6645,0.19934 -1.41204,0.36546 -2.24262,0.49835 -0.79739,0.16612 -1.66121,0.29902 -2.59146,0.39869 -0.93029,0.0997 -1.86056,0.14951 -2.79081,0.14951 -2.35891,0 -4.4188,-0.34885 -6.17965,-1.04655 -1.72765,-0.69771 -3.17289,-1.64459 -4.33572,-2.84065 -1.12962,-1.22928 -1.97683,-2.67452 -2.54163,-4.33572 -0.53159,-1.66119 -0.79738,-3.45528 -0.79738,-5.38228 m 17.44256,-2.84064 c -0.0332,-0.63124 -0.14952,-1.24588 -0.34885,-1.84393 -0.16614,-0.59801 -0.44854,-1.1296 -0.84721,-1.59475 -0.36548,-0.46511 -0.84723,-0.84719 -1.44524,-1.14622 -0.56482,-0.299 -1.27914,-0.44851 -2.14294,-0.44853 -0.83062,2e-5 -1.54493,0.14953 -2.14295,0.44853 -0.59804,0.26581 -1.0964,0.63127 -1.49507,1.09638 -0.3987,0.46516 -0.71433,1.01335 -0.94688,1.64459 -0.19936,0.59805 -0.34887,1.21269 -0.44853,1.84393 l 9.81767,0"
         id="path3787"
         inkscape:connector-curvature="0" />
      <path
         d="m 518.73739,585.93467 c -0.66449,-0.1661 -1.44526,-0.33222 -2.34228,-0.49836 -0.89707,-0.19932 -1.86056,-0.299 -2.89048,-0.29902 -0.46515,2e-5 -1.02996,0.0499 -1.69442,0.14951 -0.63127,0.0665 -1.11302,0.14953 -1.44525,0.24918 l 0,20.03403 -7.42554,0 0,-24.81827 c 1.32895,-0.46511 2.89047,-0.89703 4.68457,-1.29574 1.82731,-0.43188 3.85396,-0.64784 6.07998,-0.64786 0.39867,2e-5 0.88042,0.0333 1.44524,0.0997 0.56479,0.0332 1.1296,0.0997 1.69442,0.19934 0.56479,0.0665 1.12959,0.16615 1.69442,0.29902 0.56479,0.0997 1.04653,0.23259 1.44524,0.39868 l -1.2459,6.12982"
         id="path3789"
         inkscape:connector-curvature="0" />
    </g>
  </g>
</svg>
